<svg width="125" height="90" viewBox="0 0 125 90" fill="none" xmlns="http://www.w3.org/2000/svg">
<g clip-path="url(#clip0_3_122)">
<mask id="mask0_3_122" style="mask-type:luminance" maskUnits="userSpaceOnUse" x="33" y="0" width="58" height="57">
<path d="M33.9297 0.202057H90.465V56.5814H33.9297V0.202057Z" fill="white"/>
</mask>
<g mask="url(#mask0_3_122)">
<path d="M90.465 28.3917C90.465 30.8971 90.1381 33.3244 89.5222 35.6385C89.3223 36.3847 89.0953 37.1202 88.8387 37.8421C86.7262 43.7635 82.6822 48.7743 77.463 52.1202C76.3311 52.8448 75.1452 53.4941 73.9107 54.0544C73.3569 54.305 72.795 54.5393 72.225 54.7549C70.8365 55.2802 69.3966 55.7004 67.9135 56.0049C66.4818 56.2985 65.0095 56.4844 63.5075 56.5517C63.0726 56.5706 62.6377 56.5814 62.1973 56.5814C61.7813 56.5814 61.368 56.5706 60.9574 56.5517C57.9723 56.4251 55.1061 55.8351 52.429 54.8518C51.7455 54.6013 51.0756 54.3238 50.4191 54.0248C49.1711 53.451 47.9717 52.7937 46.8317 52.0528C46.0699 51.5625 45.3378 51.0345 44.63 50.4741C40.7156 47.3761 37.6441 43.2651 35.818 38.5345C35.564 37.8879 35.3398 37.2306 35.1372 36.5625C34.3511 33.9763 33.9297 31.2312 33.9297 28.3917C33.9297 24.8141 34.5996 21.3928 35.818 18.2462C35.8234 18.2301 35.8288 18.2139 35.8342 18.1977C36.9553 15.3233 38.5302 12.6778 40.4779 10.3502C40.5293 10.2856 40.5833 10.2236 40.6373 10.159C45.824 4.0679 53.5582 0.202057 62.1973 0.202057C77.8088 0.202057 90.465 12.8233 90.465 28.3917Z" fill="#374266"/>
</g>
<path d="M60.4523 9.40465V17.764C60.4523 18.5803 59.7878 19.243 58.9692 19.243C58.1507 19.243 57.4861 18.5803 57.4861 17.764V9.47469C57.4861 7.17405 55.66 5.24517 53.353 5.20206C50.9919 5.15896 49.0577 7.0609 49.0577 9.40465V17.764C49.0577 18.5803 48.3932 19.243 47.5719 19.243C46.7534 19.243 46.0889 18.5803 46.0889 17.764V9.40465C46.0889 5.44991 49.3036 2.24139 53.2719 2.24139C57.2376 2.24139 60.4523 5.44991 60.4523 9.40465Z" fill="#C5C6E0"/>
<mask id="mask1_3_122" style="mask-type:luminance" maskUnits="userSpaceOnUse" x="35" y="9" width="38" height="48">
<path d="M35.6155 9.82758H72.2683V56.5813H35.6155V9.82758Z" fill="white"/>
</mask>
<g mask="url(#mask1_3_122)">
<path d="M72.2251 10.3502V54.7549C70.8366 55.2829 69.3967 55.7004 67.9137 56.0049C66.4819 56.2985 65.0096 56.4844 63.5077 56.5517C63.0727 56.5706 62.6378 56.5814 62.1975 56.5814C61.7814 56.5814 61.3681 56.5706 60.9575 56.5517C57.2106 56.3928 53.6502 55.5038 50.4193 54.0248C49.1712 53.451 47.9718 52.7936 46.8318 52.0528C46.07 51.5625 45.3379 51.0345 44.6301 50.4741C40.7158 47.3761 37.6443 43.2651 35.8181 38.5345V10.3502H72.2251Z" fill="#FF526C"/>
</g>
<path d="M42.1827 48.2947C39.4299 45.5442 37.2445 42.2279 35.8181 38.5345V10.3502H42.1827V48.2947Z" fill="#E83150"/>
<path d="M65.3959 9.40465V17.764C65.3959 18.5803 64.7314 19.243 63.9101 19.243C63.0916 19.243 62.4271 18.5803 62.4271 17.764V9.47469C62.4271 7.17405 60.6009 5.24517 58.2939 5.20206C55.9329 5.15896 53.9986 7.0609 53.9986 9.40465V17.764C53.9986 18.5803 53.3341 19.243 52.5156 19.243C51.6943 19.243 51.0298 18.5803 51.0298 17.764V9.40465C51.0298 5.44991 54.2472 2.24139 58.2129 2.24139C62.1812 2.24139 65.3959 5.44991 65.3959 9.40465Z" fill="#F2F2F7"/>
<path d="M77.1012 19.7953V28.1546C77.1012 28.9709 76.4367 29.6336 75.6182 29.6336C74.7969 29.6336 74.1324 28.9709 74.1324 28.1546V19.8653C74.1324 17.5647 72.3089 15.6385 69.9992 15.5954C67.6409 15.5496 65.7039 17.4515 65.7039 19.7953V28.1546C65.7039 28.9736 65.0394 29.6363 64.2209 29.6363C63.4023 29.6363 62.7378 28.9736 62.7378 28.1546V19.7953C62.7378 15.8405 65.9525 12.6347 69.9182 12.6347C73.8865 12.6347 77.1012 15.8405 77.1012 19.7953Z" fill="#C5C6E0"/>
<mask id="mask2_3_122" style="mask-type:luminance" maskUnits="userSpaceOnUse" x="52" y="22" width="37" height="35">
<path d="M52.2129 22.2414H88.8657V56.5814H52.2129V22.2414Z" fill="white"/>
</mask>
<g mask="url(#mask2_3_122)">
<path d="M88.8387 22.7748V37.8422C86.7262 43.7635 82.6821 48.7743 77.463 52.1202C76.3311 52.8449 75.1452 53.4941 73.9106 54.0544C73.3568 54.305 72.7949 54.5394 72.2249 54.7549C70.8364 55.2802 69.3966 55.7005 67.9135 56.0049C66.4817 56.2985 65.0095 56.4844 63.5075 56.5517C63.0725 56.5706 62.6376 56.5814 62.1973 56.5814C61.7813 56.5814 61.3679 56.5706 60.9573 56.5517C57.9723 56.4251 55.1061 55.8352 52.429 54.8519V22.7748H88.8387Z" fill="#FFE261"/>
</g>
<mask id="mask3_3_122" style="mask-type:luminance" maskUnits="userSpaceOnUse" x="52" y="22" width="8" height="35">
<path d="M52.2129 22.2414H59.1285V56.5814H52.2129V22.2414Z" fill="white"/>
</mask>
<g mask="url(#mask3_3_122)">
<path d="M58.7557 56.374C57.7318 56.4117 53.5446 55.3529 52.429 54.8519V22.7748H58.7935L58.7557 56.374Z" fill="#F58D2C"/>
</g>
<path d="M81.8151 19.7953V28.1546C81.8151 28.9709 81.1533 29.6336 80.332 29.6336C79.5135 29.6336 78.8489 28.9709 78.8489 28.1546V19.8653C78.8489 17.5647 77.0228 15.6385 74.7158 15.5954C72.3547 15.5496 70.4205 17.4515 70.4205 19.7953V28.1546C70.4205 28.9736 69.756 29.6363 68.9347 29.6363C68.1162 29.6363 67.4517 28.9736 67.4517 28.1546V19.7953C67.4517 15.8405 70.6663 12.6347 74.6347 12.6347C78.6004 12.6347 81.8151 15.8405 81.8151 19.7953Z" fill="#F2F2F7"/>
<path d="M0.141113 79.4398V67.1876H5.05769C6.4111 67.1876 7.42684 67.484 8.10489 68.0712C8.78835 68.6612 9.13143 69.4155 9.13143 70.3342C9.13143 71.0535 8.92072 71.6354 8.5047 72.0799C8.08598 72.5271 7.5565 72.8207 6.91627 72.9635V73.082C7.38361 73.1036 7.82395 73.2383 8.23456 73.4807C8.64518 73.7178 8.97475 74.0572 9.22868 74.4937C9.48802 74.9247 9.61769 75.4473 9.61769 76.0562C9.61769 76.7027 9.4556 77.2819 9.13143 77.7911C8.80726 78.3029 8.33181 78.7043 7.70508 78.998C7.07835 79.2943 6.30305 79.4398 5.38186 79.4398H0.141113ZM2.73447 77.3277H4.85239C5.57907 77.3277 6.10854 77.1876 6.44082 76.9074C6.77039 76.6273 6.93788 76.2582 6.93788 75.7975C6.93788 75.2884 6.75418 74.8762 6.38679 74.5583C6.0248 74.235 5.53584 74.0734 4.91722 74.0734H2.73447V77.3277ZM2.73447 72.3169H4.65788C5.19006 72.3169 5.6331 72.1822 5.98698 71.9074C6.33817 71.6273 6.51646 71.2474 6.51646 70.7652C6.51646 70.3207 6.35708 69.9651 6.04101 69.6984C5.73035 69.4263 5.28731 69.2889 4.71191 69.2889H2.73447V72.3169Z" fill="#374266"/>
<path d="M14.6541 79.4398H11.8662L16.1128 67.1876H19.4518L23.6876 79.4398H20.9106L19.9921 76.6488H15.5618L14.6541 79.4398ZM16.2209 74.623H19.3437L17.8309 69.9893H17.7337L16.2209 74.623Z" fill="#374266"/>
<path d="M34.5479 71.1532C34.3804 70.5793 34.0752 70.1294 33.6294 69.8062C33.1891 69.4775 32.6353 69.3105 31.9654 69.3105C31.028 69.3105 30.2689 69.6607 29.6854 70.3557C29.1019 71.0454 28.8101 72.0314 28.8101 73.3083C28.8101 74.588 29.0938 75.5766 29.6638 76.2717C30.2392 76.9694 31.0172 77.3169 31.9978 77.3169C32.8622 77.3169 33.5376 77.096 34.0292 76.6488C34.5263 76.1963 34.7802 75.5928 34.7964 74.8385H32.1599V72.8881H37.2926V74.429C37.2926 75.5012 37.0656 76.4226 36.6118 77.1984C36.158 77.9743 35.5312 78.5723 34.7316 78.9872C33.932 79.4048 33.0162 79.6122 31.987 79.6122C30.8335 79.6122 29.8204 79.359 28.9506 78.8471C28.078 78.338 27.3973 77.616 26.9083 76.6812C26.4248 75.741 26.1843 74.623 26.1843 73.3299C26.1843 72.0018 26.4356 70.8676 26.9407 69.9247C27.4513 68.9845 28.1402 68.2652 29.0046 67.7695C29.8745 67.2738 30.8524 67.026 31.9329 67.026C32.8541 67.026 33.6889 67.2038 34.4399 67.554C35.1963 67.8988 35.8122 68.3838 36.2876 69.0088C36.7685 69.6284 37.0683 70.3423 37.1845 71.1532H34.5479Z" fill="#374266"/>
<path d="M48.6282 71.1532C48.4608 70.5793 48.1555 70.1294 47.7098 69.8062C47.2694 69.4775 46.7156 69.3105 46.0457 69.3105C45.1083 69.3105 44.3492 69.6607 43.7657 70.3557C43.1822 71.0454 42.8904 72.0314 42.8904 73.3083C42.8904 74.588 43.1741 75.5766 43.7441 76.2717C44.3195 76.9694 45.0975 77.3169 46.0781 77.3169C46.9426 77.3169 47.6179 77.096 48.1096 76.6488C48.6066 76.1963 48.8606 75.5928 48.8768 74.8385H46.2402V72.8881H51.3729V74.429C51.3729 75.5012 51.146 76.4226 50.6921 77.1984C50.2383 77.9743 49.6116 78.5723 48.8119 78.9872C48.0123 79.4048 47.0965 79.6122 46.0673 79.6122C44.9138 79.6122 43.9008 79.359 43.0309 78.8471C42.1583 78.338 41.4776 77.616 40.9886 76.6812C40.5051 75.741 40.2646 74.623 40.2646 73.3299C40.2646 72.0018 40.5159 70.8676 41.021 69.9247C41.5316 68.9845 42.2205 68.2652 43.0849 67.7695C43.9548 67.2738 44.9327 67.026 46.0133 67.026C46.9344 67.026 47.7692 67.2038 48.5202 67.554C49.2766 67.8988 49.8925 68.3838 50.368 69.0088C50.8488 69.6284 51.1487 70.3423 51.2648 71.1532H48.6282Z" fill="#374266"/>
<path d="M57.1546 67.1876V79.4398H54.5613V67.1876H57.1546Z" fill="#374266"/>
<path d="M71.8139 73.3191C71.8139 74.6553 71.56 75.7922 71.0575 76.7243C70.5523 77.6591 69.8635 78.373 68.9936 78.8687C68.1292 79.3644 67.1512 79.6122 66.0653 79.6122C64.9766 79.6122 63.996 79.3644 63.1261 78.8687C62.2617 78.373 61.5755 77.6564 61.073 76.7135C60.5679 75.7733 60.3167 74.6418 60.3167 73.3191C60.3167 71.9829 60.5679 70.8487 61.073 69.9139C61.5755 68.9737 62.2617 68.2598 63.1261 67.7695C63.996 67.2738 64.9766 67.026 66.0653 67.026C67.1512 67.026 68.1292 67.2738 68.9936 67.7695C69.8635 68.2598 70.5523 68.9737 71.0575 69.9139C71.56 70.8487 71.8139 71.9829 71.8139 73.3191ZM69.1881 73.3191C69.1881 72.0206 68.9018 71.0292 68.3345 70.345C67.7645 69.6553 67.0081 69.3105 66.0653 69.3105C65.1198 69.3105 64.3634 69.6553 63.7961 70.345C63.2261 71.0292 62.9424 72.0206 62.9424 73.3191C62.9424 74.6122 63.2261 75.6036 63.7961 76.2932C64.3634 76.9775 65.1198 77.3169 66.0653 77.3169C67.0081 77.3169 67.7645 76.9775 68.3345 76.2932C68.9018 75.6036 69.1881 74.6122 69.1881 73.3191Z" fill="#374266"/>
<path d="M81.6293 70.7113C81.5861 70.2318 81.3808 69.8574 81.0134 69.5907C80.646 69.3266 80.1517 69.1919 79.533 69.1919C78.8982 69.1919 78.412 69.3213 78.0743 69.5799C77.7339 69.8385 77.5664 70.1672 77.5664 70.5605C77.5502 70.9996 77.7393 71.3337 78.1283 71.5626C78.5173 71.7862 78.9739 71.9587 79.5006 72.0799L80.6136 72.3385C81.3187 72.4974 81.9481 72.7318 82.5046 73.0389C83.0584 73.3407 83.4933 73.7286 83.8121 74.2027C84.1282 74.6769 84.2875 75.2561 84.2875 75.9376C84.2875 77.0583 83.8661 77.9527 83.0233 78.6208C82.1858 79.2835 81.0188 79.6122 79.5222 79.6122C78.0311 79.6122 76.8424 79.2755 75.9564 78.5993C75.0703 77.9177 74.6084 76.9155 74.5732 75.5928H77.091C77.1342 76.2124 77.3746 76.6758 77.8149 76.9829C78.2526 77.2927 78.8118 77.4463 79.4898 77.4463C80.1517 77.4463 80.6784 77.3062 81.0675 77.026C81.4619 76.7458 81.6645 76.3848 81.6726 75.9376C81.6645 75.5228 81.4808 75.2022 81.1215 74.9786C80.7595 74.7577 80.2489 74.5664 79.5871 74.4075L78.2472 74.0734C77.2098 73.8229 76.3913 73.4269 75.7943 72.8881C75.1946 72.3493 74.8974 71.6327 74.8974 70.7329C74.8974 69.9948 75.0946 69.3482 75.4917 68.7932C75.8942 68.2329 76.448 67.7992 77.1558 67.4894C77.8609 67.1823 78.6605 67.026 79.5547 67.026C80.4623 67.026 81.2565 67.1823 81.9427 67.4894C82.6262 67.7992 83.1556 68.2329 83.5311 68.7932C83.912 69.3482 84.1092 69.9867 84.1255 70.7113H81.6293Z" fill="#374266"/>
<path d="M87.2661 79.4398V67.1876H89.8595V72.2415H95.1326V67.1876H97.726V79.4398H95.1326V74.3751H89.8595V79.4398H87.2661Z" fill="#374266"/>
<path d="M112.382 73.3191C112.382 74.6553 112.128 75.7922 111.625 76.7243C111.12 77.6591 110.431 78.373 109.561 78.8687C108.697 79.3644 107.719 79.6122 106.633 79.6122C105.544 79.6122 104.564 79.3644 103.694 78.8687C102.829 78.373 102.143 77.6564 101.641 76.7135C101.136 75.7733 100.884 74.6418 100.884 73.3191C100.884 71.9829 101.136 70.8487 101.641 69.9139C102.143 68.9737 102.829 68.2598 103.694 67.7695C104.564 67.2738 105.544 67.026 106.633 67.026C107.719 67.026 108.697 67.2738 109.561 67.7695C110.431 68.2598 111.12 68.9737 111.625 69.9139C112.128 70.8487 112.382 71.9829 112.382 73.3191ZM109.756 73.3191C109.756 72.0206 109.469 71.0292 108.902 70.345C108.332 69.6553 107.576 69.3105 106.633 69.3105C105.687 69.3105 104.931 69.6553 104.364 70.345C103.794 71.0292 103.51 72.0206 103.51 73.3191C103.51 74.6122 103.794 75.6036 104.364 76.2932C104.931 76.9775 105.687 77.3169 106.633 77.3169C107.576 77.3169 108.332 76.9775 108.902 76.2932C109.469 75.6036 109.756 74.6122 109.756 73.3191Z" fill="#374266"/>
<path d="M115.541 79.4398V67.1876H120.381C121.316 67.1876 122.113 67.3681 122.77 67.7264C123.423 68.0793 123.926 68.5669 124.272 69.1919C124.617 69.8115 124.79 70.5254 124.79 71.3363C124.79 72.1553 124.612 72.8746 124.261 73.4915C123.907 74.1111 123.396 74.596 122.726 74.9462C122.062 75.2911 121.259 75.4635 120.317 75.4635H118.134V79.4398H115.541ZM118.134 73.3945H119.895C120.644 73.3945 121.197 73.2059 121.559 72.8234C121.927 72.4435 122.11 71.9479 122.11 71.3363C122.11 70.7329 121.927 70.2453 121.559 69.8708C121.197 69.499 120.641 69.3105 119.884 69.3105H118.134V73.3945Z" fill="#374266"/>
<path d="M32.7249 89.4663V84.3693H36.1719V85.2529H33.8054V86.4706H35.999V87.3542H33.8054V88.5719H36.1827V89.4663H32.7249Z" fill="#FA4661"/>
<path d="M43.2123 86.1473H42.121C42.0778 85.8672 41.9535 85.6489 41.7536 85.49C41.5591 85.3338 41.3132 85.2529 41.0188 85.2529C40.6217 85.2529 40.3002 85.3984 40.0571 85.684C39.8194 85.9722 39.7005 86.3817 39.7005 86.9124C39.7005 87.4593 39.8194 87.8769 40.0571 88.1624C40.3002 88.4426 40.619 88.5827 41.008 88.5827C41.2943 88.5827 41.5375 88.5072 41.732 88.3564C41.9319 88.2055 42.0615 87.9954 42.121 87.7206L43.2123 87.7314C43.1745 88.0412 43.0638 88.3348 42.8774 88.615C42.6883 88.8898 42.437 89.1107 42.121 89.2831C41.8022 89.4501 41.424 89.531 40.9864 89.531C40.5325 89.531 40.1246 89.4313 39.7653 89.2292C39.4033 89.0218 39.1197 88.7228 38.9117 88.3348C38.7091 87.9415 38.6091 87.4674 38.6091 86.9124C38.6091 86.3602 38.7118 85.8887 38.9225 85.5008C39.1305 85.1075 39.4142 84.8084 39.7761 84.6064C40.1354 84.3989 40.5379 84.2939 40.9864 84.2939C41.3808 84.2939 41.7374 84.3693 42.0561 84.5202C42.3722 84.6657 42.6315 84.8758 42.8341 85.156C43.0341 85.4307 43.161 85.7594 43.2123 86.1473Z" fill="#FA4661"/>
<path d="M50.3487 86.9124C50.3487 87.4728 50.2433 87.9469 50.0353 88.3348C49.8246 88.7228 49.5383 89.0218 49.1709 89.2292C48.8089 89.4313 48.4064 89.531 47.9606 89.531C47.4987 89.531 47.0881 89.4313 46.7288 89.2292C46.3668 89.0218 46.0831 88.7228 45.8751 88.3348C45.6644 87.9415 45.5618 87.4674 45.5618 86.9124C45.5618 86.3602 45.6644 85.8887 45.8751 85.5008C46.0831 85.1075 46.3668 84.8084 46.7288 84.6064C47.0881 84.3989 47.4987 84.2939 47.9606 84.2939C48.4064 84.2939 48.8089 84.3989 49.1709 84.6064C49.5383 84.8084 49.8246 85.1075 50.0353 85.5008C50.2433 85.8887 50.3487 86.3602 50.3487 86.9124ZM49.2573 86.9124C49.2573 86.3736 49.1384 85.9641 48.9007 85.684C48.663 85.3984 48.3496 85.2529 47.9606 85.2529C47.5635 85.2529 47.2475 85.3984 47.0097 85.684C46.772 85.9641 46.6531 86.3736 46.6531 86.9124C46.6531 87.4512 46.772 87.8661 47.0097 88.1516C47.2475 88.4399 47.5635 88.5827 47.9606 88.5827C48.3496 88.5827 48.663 88.4399 48.9007 88.1516C49.1384 87.8661 49.2573 87.4512 49.2573 86.9124Z" fill="#FA4661"/>
<path d="M52.8105 84.3693H54.1505L55.5552 87.796H55.62L57.0248 84.3693H58.3539V89.4663H57.3057V86.1473H57.2625L55.9442 89.4448H55.231L53.9019 86.1366H53.8587V89.4663H52.8105V84.3693Z" fill="#FA4661"/>
<path d="M60.9722 84.3693H62.3121L63.7168 87.796H63.7816L65.1864 84.3693H66.5155V89.4663H65.4673V86.1473H65.4241L64.1058 89.4448H63.3926L62.0635 86.1366H62.0203V89.4663H60.9722V84.3693Z" fill="#FA4661"/>
<path d="M69.1338 89.4663V84.3693H72.5808V85.2529H70.2144V86.4706H72.4079V87.3542H70.2144V88.5719H72.5916V89.4663H69.1338Z" fill="#FA4661"/>
<path d="M75.1045 89.4663V84.3693H77.1252C77.7087 84.3693 78.1571 84.5202 78.4759 84.8219C78.8 85.1236 78.9621 85.5277 78.9621 86.0288C78.9621 86.3817 78.8811 86.6834 78.7244 86.934C78.565 87.1791 78.3408 87.3623 78.0544 87.4835L79.1458 89.4663H77.9464L76.9739 87.656H76.1851V89.4663H75.1045ZM76.1851 86.7939H76.9198C77.5385 86.7939 77.8491 86.5407 77.8491 86.0288C77.8491 85.5062 77.5385 85.2422 76.9198 85.2422H76.1851V86.7939Z" fill="#FA4661"/>
<path d="M85.8994 86.1473H84.808C84.7648 85.8672 84.6405 85.6489 84.4406 85.49C84.2461 85.3338 84.0003 85.2529 83.7058 85.2529C83.3087 85.2529 82.9872 85.3984 82.7441 85.684C82.5064 85.9722 82.3875 86.3817 82.3875 86.9124C82.3875 87.4593 82.5064 87.8769 82.7441 88.1624C82.9872 88.4426 83.306 88.5827 83.695 88.5827C83.9814 88.5827 84.2245 88.5072 84.419 88.3564C84.6189 88.2055 84.7486 87.9954 84.808 87.7206L85.8994 87.7314C85.8615 88.0412 85.7508 88.3348 85.5644 88.615C85.3753 88.8898 85.1241 89.1107 84.808 89.2831C84.4892 89.4501 84.111 89.531 83.6734 89.531C83.2196 89.531 82.8116 89.4313 82.4523 89.2292C82.0904 89.0218 81.8067 88.7228 81.5987 88.3348C81.3961 87.9415 81.2961 87.4674 81.2961 86.9124C81.2961 86.3602 81.3988 85.8887 81.6095 85.5008C81.8175 85.1075 82.1012 84.8084 82.4632 84.6064C82.8224 84.3989 83.225 84.2939 83.6734 84.2939C84.0678 84.2939 84.4244 84.3693 84.7432 84.5202C85.0592 84.6657 85.3186 84.8758 85.5212 85.156C85.7211 85.4307 85.848 85.7594 85.8994 86.1473Z" fill="#FA4661"/>
<path d="M88.3352 89.4663V84.3693H91.7822V85.2529H89.4158V86.4706H91.6093V87.3542H89.4158V88.5719H91.793V89.4663H88.3352Z" fill="#FA4661"/>
<path d="M0.16748 87.6562H26.1065" stroke="#374266" stroke-width="4.97827"/>
<path d="M97.2078 87.6562H123.149" stroke="#374266" stroke-width="4.97827"/>
</g>
<defs>
<clipPath id="clip0_3_122">
<rect width="125" height="90" fill="white"/>
</clipPath>
</defs>
</svg>
