<svg width="111" height="80" viewBox="0 0 111 80" fill="none" xmlns="http://www.w3.org/2000/svg">
<g clip-path="url(#clip0_7_283)">
<mask id="mask0_7_283" style="mask-type:luminance" maskUnits="userSpaceOnUse" x="30" y="0" width="51" height="51">
<path d="M30.1296 0.179565H80.333V50.2945H30.1296V0.179565Z" fill="white"/>
</mask>
<g mask="url(#mask0_7_283)">
<path d="M80.333 25.237C80.333 27.4641 80.0427 29.6216 79.4958 31.6786C79.3182 32.3419 79.1167 32.9957 78.8888 33.6374C77.0129 38.9008 73.4218 43.3549 68.7873 46.329C67.7821 46.9732 66.729 47.5503 65.6328 48.0483C65.141 48.271 64.642 48.4794 64.1359 48.6709C62.9029 49.1379 61.6243 49.5115 60.3073 49.7821C59.0359 50.0431 57.7285 50.2083 56.3947 50.2682C56.0085 50.2849 55.6223 50.2945 55.2313 50.2945C54.8619 50.2945 54.4949 50.2849 54.1302 50.2682C51.4795 50.1556 48.9343 49.6312 46.557 48.7572C45.9501 48.5345 45.3552 48.2878 44.7723 48.022C43.664 47.5119 42.5989 46.9277 41.5866 46.2691C40.9101 45.8333 40.26 45.364 39.6315 44.8659C36.1556 42.112 33.4281 38.4578 31.8064 34.2528C31.5809 33.6781 31.3818 33.0938 31.2019 32.5C30.5039 30.2011 30.1296 27.761 30.1296 25.237C30.1296 22.057 30.7246 19.0158 31.8064 16.2188C31.8112 16.2045 31.816 16.1901 31.8208 16.1757C32.8164 13.6207 34.2149 11.2691 35.9445 9.20016C35.9901 9.14269 36.038 9.08761 36.086 9.03014C40.6918 3.61587 47.5597 0.179565 55.2313 0.179565C69.0943 0.179565 80.333 11.3984 80.333 25.237Z" fill="white"/>
</g>
<path d="M53.6817 8.35965V15.7902C53.6817 16.5158 53.0916 17.1049 52.3648 17.1049C51.6379 17.1049 51.0478 16.5158 51.0478 15.7902V8.42191C51.0478 6.37689 49.4262 4.66233 47.3775 4.62401C45.2809 4.5857 43.5633 6.27631 43.5633 8.35965V15.7902C43.5633 16.5158 42.9732 17.1049 42.244 17.1049C41.5171 17.1049 40.927 16.5158 40.927 15.7902V8.35965C40.927 4.84432 43.7816 1.99231 47.3056 1.99231C50.8271 1.99231 53.6817 4.84432 53.6817 8.35965Z" fill="#C5C6E0"/>
<mask id="mask1_7_283" style="mask-type:luminance" maskUnits="userSpaceOnUse" x="31" y="8" width="34" height="43">
<path d="M31.6265 8.7356H64.1742V50.2945H31.6265V8.7356Z" fill="white"/>
</mask>
<g mask="url(#mask1_7_283)">
<path d="M64.1358 9.2002V48.671C62.9028 49.1403 61.6242 49.5115 60.3072 49.7821C59.0358 50.0431 57.7285 50.2083 56.3947 50.2682C56.0085 50.285 55.6223 50.2945 55.2313 50.2945C54.8618 50.2945 54.4948 50.285 54.1302 50.2682C50.803 50.1269 47.6413 49.3367 44.7722 48.022C43.664 47.512 42.5989 46.9277 41.5865 46.2692C40.9101 45.8333 40.26 45.364 39.6315 44.8659C36.1555 42.1121 33.428 38.4579 31.8064 34.2529V9.2002H64.1358Z" fill="#FF526C"/>
</g>
<path d="M37.4581 42.9286C35.0137 40.4837 33.073 37.5359 31.8064 34.2529V9.2002H37.4581V42.9286Z" fill="#E83150"/>
<path d="M58.0716 8.35965V15.7902C58.0716 16.5158 57.4815 17.1049 56.7522 17.1049C56.0254 17.1049 55.4352 16.5158 55.4352 15.7902V8.42191C55.4352 6.37689 53.8136 4.66233 51.765 4.62401C49.6684 4.5857 47.9508 6.27631 47.9508 8.35965V15.7902C47.9508 16.5158 47.3607 17.1049 46.6338 17.1049C45.9046 17.1049 45.3145 16.5158 45.3145 15.7902V8.35965C45.3145 4.84432 48.1715 1.99231 51.693 1.99231C55.2169 1.99231 58.0716 4.84432 58.0716 8.35965Z" fill="#F2F2F7"/>
<path d="M68.4659 17.5958V25.0263C68.4659 25.7519 67.8758 26.341 67.1489 26.341C66.4197 26.341 65.8296 25.7519 65.8296 25.0263V17.658C65.8296 15.613 64.2103 13.9009 62.1593 13.8625C60.0651 13.8218 58.3451 15.5124 58.3451 17.5958V25.0263C58.3451 25.7543 57.755 26.3434 57.0282 26.3434C56.3013 26.3434 55.7112 25.7543 55.7112 25.0263V17.5958C55.7112 14.0805 58.5658 11.2308 62.0873 11.2308C65.6113 11.2308 68.4659 14.0805 68.4659 17.5958Z" fill="#C5C6E0"/>
<mask id="mask2_7_283" style="mask-type:luminance" maskUnits="userSpaceOnUse" x="46" y="19" width="33" height="32">
<path d="M46.3652 19.7701H78.913V50.2946H46.3652V19.7701Z" fill="white"/>
</mask>
<g mask="url(#mask2_7_283)">
<path d="M78.889 20.2443V33.6375C77.013 38.9009 73.422 43.3549 68.7874 46.329C67.7822 46.9732 66.7291 47.5503 65.6329 48.0484C65.1411 48.2711 64.6421 48.4794 64.136 48.671C62.903 49.1379 61.6244 49.5115 60.3074 49.7821C59.036 50.0431 57.7286 50.2083 56.3948 50.2682C56.0086 50.285 55.6224 50.2945 55.2314 50.2945C54.862 50.2945 54.495 50.285 54.1303 50.2682C51.4796 50.1557 48.9344 49.6312 46.5571 48.7572V20.2443H78.889Z" fill="#FFE261"/>
</g>
<mask id="mask3_7_283" style="mask-type:luminance" maskUnits="userSpaceOnUse" x="46" y="19" width="7" height="32">
<path d="M46.3652 19.7701H52.5063V50.2946H46.3652V19.7701Z" fill="white"/>
</mask>
<g mask="url(#mask3_7_283)">
<path d="M52.1753 50.1102C51.2661 50.1437 47.5479 49.2026 46.5571 48.7572V20.2443H52.2088L52.1753 50.1102Z" fill="#F58D2C"/>
</g>
<path d="M72.6519 17.5958V25.0263C72.6519 25.7519 72.0642 26.341 71.335 26.341C70.6081 26.341 70.018 25.7519 70.018 25.0263V17.658C70.018 15.613 68.3964 13.9009 66.3477 13.8625C64.2511 13.8218 62.5336 15.5124 62.5336 17.5958V25.0263C62.5336 25.7543 61.9434 26.3434 61.2142 26.3434C60.4873 26.3434 59.8972 25.7543 59.8972 25.0263V17.5958C59.8972 14.0805 62.7519 11.2308 66.2758 11.2308C69.7973 11.2308 72.6519 14.0805 72.6519 17.5958Z" fill="#F2F2F7"/>
<path d="M0.125244 70.6131V59.7223H4.49117C5.693 59.7223 6.59497 59.9857 7.19708 60.5077C7.80399 61.0322 8.10865 61.7027 8.10865 62.5192C8.10865 63.1586 7.92154 63.6758 7.55211 64.0709C7.18029 64.4685 6.71011 64.7295 6.14158 64.8564V64.9618C6.55658 64.9809 6.9476 65.1006 7.31223 65.3162C7.67685 65.5269 7.96951 65.8286 8.19501 66.2165C8.4253 66.5997 8.54044 67.0642 8.54044 67.6054C8.54044 68.1801 8.39651 68.695 8.10865 69.1476C7.82078 69.6026 7.39858 69.9594 6.84205 70.2204C6.28551 70.4838 5.59704 70.6131 4.77903 70.6131H0.125244ZM2.42815 68.7357H4.30885C4.95415 68.7357 5.42432 68.6112 5.71938 68.3621C6.01204 68.1131 6.16077 67.785 6.16077 67.3755C6.16077 66.923 5.99765 66.5566 5.67141 66.274C5.34996 65.9867 4.91577 65.843 4.36643 65.843H2.42815V68.7357ZM2.42815 64.2817H4.13614C4.60871 64.2817 5.00212 64.1619 5.31638 63.9177C5.62823 63.6687 5.78655 63.331 5.78655 62.9024C5.78655 62.5073 5.64502 62.1912 5.36435 61.9541C5.08848 61.7122 4.69507 61.5901 4.18411 61.5901H2.42815V64.2817Z" fill="white"/>
<path d="M13.0127 70.6131H10.5371L14.3081 59.7223H17.2731L21.0345 70.6131H18.5685L17.7529 68.1323H13.8187L13.0127 70.6131ZM14.4041 66.3315H17.1772L15.8338 62.2127H15.7474L14.4041 66.3315Z" fill="white"/>
<path d="M30.6786 63.2472C30.5298 62.7371 30.2588 62.3372 29.863 62.0499C29.472 61.7577 28.9802 61.6093 28.3853 61.6093C27.5529 61.6093 26.8788 61.9206 26.3606 62.5384C25.8425 63.1514 25.5834 64.0278 25.5834 65.1629C25.5834 66.3004 25.8353 67.1792 26.3414 67.797C26.8524 68.4172 27.5433 68.7261 28.4141 68.7261C29.1817 68.7261 29.7814 68.5298 30.218 68.1323C30.6594 67.73 30.8849 67.1936 30.8993 66.5231H28.558V64.7893H33.1158V66.1591C33.1158 67.1121 32.9143 67.9311 32.5113 68.6208C32.1083 69.3104 31.5518 69.842 30.8417 70.2108C30.1316 70.582 29.3184 70.7664 28.4045 70.7664C27.3801 70.7664 26.4806 70.5413 25.7081 70.0863C24.9333 69.6337 24.3288 68.9919 23.8946 68.161C23.4652 67.3253 23.2517 66.3315 23.2517 65.1821C23.2517 64.0015 23.4748 62.9934 23.9234 62.1552C24.3768 61.3195 24.9885 60.6801 25.7561 60.2395C26.5286 59.7989 27.3969 59.5786 28.3565 59.5786C29.1745 59.5786 29.9157 59.7367 30.5826 60.048C31.2543 60.3545 31.8012 60.7855 32.2234 61.3411C32.6504 61.8918 32.9167 62.5264 33.0199 63.2472H30.6786Z" fill="white"/>
<path d="M43.182 63.2472C43.0333 62.7371 42.7622 62.3372 42.3664 62.0499C41.9754 61.7577 41.4836 61.6093 40.8887 61.6093C40.0563 61.6093 39.3822 61.9206 38.864 62.5384C38.3459 63.1514 38.0868 64.0278 38.0868 65.1629C38.0868 66.3004 38.3387 67.1792 38.8449 67.797C39.3558 68.4172 40.0467 68.7261 40.9175 68.7261C41.6851 68.7261 42.2848 68.5298 42.7214 68.1323C43.1628 67.73 43.3883 67.1936 43.4027 66.5231H41.0614V64.7893H45.6192V66.1591C45.6192 67.1121 45.4177 67.9311 45.0147 68.6208C44.6117 69.3104 44.0552 69.842 43.3451 70.2108C42.6351 70.582 41.8218 70.7664 40.9079 70.7664C39.8836 70.7664 38.984 70.5413 38.2116 70.0863C37.4367 69.6337 36.8322 68.9919 36.398 68.161C35.9686 67.3253 35.7551 66.3315 35.7551 65.1821C35.7551 64.0015 35.9782 62.9934 36.4268 62.1552C36.8802 61.3195 37.4919 60.6801 38.2595 60.2395C39.032 59.7989 39.9004 59.5786 40.8599 59.5786C41.6779 59.5786 42.4192 59.7367 43.086 60.048C43.7577 60.3545 44.3047 60.7855 44.7269 61.3411C45.1539 61.8918 45.4201 62.5264 45.5233 63.2472H43.182Z" fill="white"/>
<path d="M50.7531 59.7223V70.6131H48.4502V59.7223H50.7531Z" fill="white"/>
<path d="M63.7708 65.1725C63.7708 66.3602 63.5453 67.3708 63.0991 68.1993C62.6506 69.0302 62.0388 69.6648 61.2664 70.1054C60.4988 70.546 59.6304 70.7664 58.6661 70.7664C57.6993 70.7664 56.8285 70.546 56.0561 70.1054C55.2885 69.6648 54.6791 69.0278 54.233 68.1897C53.7844 67.354 53.5613 66.3482 53.5613 65.1725C53.5613 63.9847 53.7844 62.9766 54.233 62.1457C54.6791 61.3099 55.2885 60.6754 56.0561 60.2395C56.8285 59.7989 57.6993 59.5786 58.6661 59.5786C59.6304 59.5786 60.4988 59.7989 61.2664 60.2395C62.0388 60.6754 62.6506 61.3099 63.0991 62.1457C63.5453 62.9766 63.7708 63.9847 63.7708 65.1725ZM61.4391 65.1725C61.4391 64.0183 61.1849 63.137 60.6811 62.5288C60.1749 61.9158 59.5033 61.6093 58.6661 61.6093C57.8265 61.6093 57.1548 61.9158 56.651 62.5288C56.1449 63.137 55.893 64.0183 55.893 65.1725C55.893 66.3219 56.1449 67.2031 56.651 67.8162C57.1548 68.4244 57.8265 68.7261 58.6661 68.7261C59.5033 68.7261 60.1749 68.4244 60.6811 67.8162C61.1849 67.2031 61.4391 66.3219 61.4391 65.1725Z" fill="white"/>
<path d="M72.4868 62.8545C72.4484 62.4282 72.2661 62.0954 71.9398 61.8583C71.6136 61.6236 71.1746 61.5039 70.6253 61.5039C70.0615 61.5039 69.6297 61.6188 69.3299 61.8487C69.0276 62.0786 68.8789 62.3708 68.8789 62.7204C68.8645 63.1107 69.0324 63.4076 69.3778 63.6112C69.7233 63.8099 70.1287 63.9632 70.5965 64.071L71.5848 64.3008C72.2109 64.4421 72.7698 64.6505 73.264 64.9234C73.7558 65.1916 74.142 65.5365 74.425 65.9579C74.7057 66.3794 74.8472 66.8942 74.8472 67.5001C74.8472 68.4962 74.473 69.2913 73.7246 69.8851C72.9809 70.4742 71.9446 70.7664 70.6157 70.7664C69.2915 70.7664 68.236 70.467 67.4492 69.866C66.6623 69.2601 66.2521 68.3693 66.2209 67.1936H68.4567C68.4951 67.7443 68.7086 68.1562 69.0996 68.4292C69.4882 68.7046 69.9848 68.8411 70.5869 68.8411C71.1746 68.8411 71.6424 68.7165 71.9878 68.4675C72.338 68.2185 72.518 67.8976 72.5251 67.5001C72.518 67.1313 72.3548 66.8463 72.0358 66.6476C71.7143 66.4512 71.261 66.2812 70.6732 66.1399L69.4834 65.843C68.5622 65.6203 67.8354 65.2683 67.3052 64.7893C66.7727 64.3104 66.5088 63.6734 66.5088 62.8736C66.5088 62.2175 66.6839 61.6428 67.0366 61.1495C67.394 60.6514 67.8858 60.2659 68.5143 59.9905C69.1404 59.7175 69.8504 59.5786 70.6444 59.5786C71.4505 59.5786 72.1557 59.7175 72.765 59.9905C73.3719 60.2659 73.8421 60.6514 74.1756 61.1495C74.5138 61.6428 74.6889 62.2103 74.7033 62.8545H72.4868Z" fill="white"/>
<path d="M77.4922 70.6131V59.7223H79.7951V64.2146H84.4777V59.7223H86.7806V70.6131H84.4777V66.1112H79.7951V70.6131H77.4922Z" fill="white"/>
<path d="M99.7947 65.1725C99.7947 66.3602 99.5693 67.3708 99.1231 68.1993C98.6745 69.0302 98.0628 69.6648 97.2903 70.1054C96.5227 70.546 95.6543 70.7664 94.69 70.7664C93.7232 70.7664 92.8525 70.546 92.08 70.1054C91.3124 69.6648 90.7031 69.0278 90.2569 68.1897C89.8083 67.354 89.5852 66.3482 89.5852 65.1725C89.5852 63.9847 89.8083 62.9766 90.2569 62.1457C90.7031 61.3099 91.3124 60.6754 92.08 60.2395C92.8525 59.7989 93.7232 59.5786 94.69 59.5786C95.6543 59.5786 96.5227 59.7989 97.2903 60.2395C98.0628 60.6754 98.6745 61.3099 99.1231 62.1457C99.5693 62.9766 99.7947 63.9847 99.7947 65.1725ZM97.4631 65.1725C97.4631 64.0183 97.2088 63.137 96.705 62.5288C96.1989 61.9158 95.5272 61.6093 94.69 61.6093C93.8504 61.6093 93.1787 61.9158 92.6749 62.5288C92.1688 63.137 91.9169 64.0183 91.9169 65.1725C91.9169 66.3219 92.1688 67.2031 92.6749 67.8162C93.1787 68.4244 93.8504 68.7261 94.69 68.7261C95.5272 68.7261 96.1989 68.4244 96.705 67.8162C97.2088 67.2031 97.4631 66.3219 97.4631 65.1725Z" fill="white"/>
<path d="M102.6 70.6131V59.7223H106.899C107.729 59.7223 108.437 59.8827 109.019 60.2012C109.6 60.5149 110.046 60.9483 110.353 61.5039C110.66 62.0547 110.814 62.6892 110.814 63.41C110.814 64.138 110.655 64.7774 110.344 65.3257C110.029 65.8765 109.576 66.3075 108.981 66.6188C108.391 66.9254 107.678 67.0786 106.841 67.0786H104.903V70.6131H102.6ZM104.903 65.2395H106.467C107.132 65.2395 107.623 65.0719 107.945 64.7319C108.271 64.3942 108.434 63.9536 108.434 63.41C108.434 62.8736 108.271 62.4402 107.945 62.1073C107.623 61.7769 107.129 61.6093 106.457 61.6093H104.903V65.2395Z" fill="white"/>
<path d="M29.0596 79.5256V74.995H32.1205V75.7804H30.0191V76.8628H31.967V77.6483H30.0191V78.7306H32.1301V79.5256H29.0596Z" fill="white"/>
<path d="M38.3726 76.5754H37.4034C37.365 76.3263 37.2547 76.1324 37.0772 75.9911C36.9045 75.8522 36.6862 75.7803 36.4247 75.7803C36.0721 75.7803 35.7866 75.9097 35.5707 76.1635C35.3596 76.4197 35.2541 76.7837 35.2541 77.2554C35.2541 77.7416 35.3596 78.1127 35.5707 78.3666C35.7866 78.6156 36.0697 78.7401 36.4151 78.7401C36.6694 78.7401 36.8853 78.6731 37.058 78.539C37.2355 78.4049 37.3507 78.2181 37.4034 77.9738L38.3726 77.9834C38.339 78.2588 38.2406 78.5198 38.0751 78.7689C37.9072 79.0131 37.6841 79.2095 37.4034 79.3627C37.1204 79.5112 36.7845 79.583 36.3959 79.583C35.9929 79.583 35.6307 79.4944 35.3116 79.3148C34.9902 79.1304 34.7383 78.8646 34.5536 78.5198C34.3737 78.1702 34.2849 77.7487 34.2849 77.2554C34.2849 76.7645 34.3761 76.3455 34.5632 76.0007C34.7479 75.651 34.9998 75.3852 35.3212 75.2056C35.6403 75.0212 35.9977 74.9279 36.3959 74.9279C36.7461 74.9279 37.0628 74.9949 37.3459 75.129C37.6265 75.2583 37.8568 75.4451 38.0367 75.6941C38.2142 75.9384 38.327 76.2305 38.3726 76.5754Z" fill="white"/>
<path d="M44.7095 77.2554C44.7095 77.7535 44.616 78.175 44.4313 78.5198C44.2441 78.8646 43.9899 79.1304 43.6636 79.3148C43.3422 79.4944 42.9847 79.583 42.5889 79.583C42.1787 79.583 41.8141 79.4944 41.495 79.3148C41.1736 79.1304 40.9217 78.8646 40.737 78.5198C40.5499 78.1702 40.4587 77.7487 40.4587 77.2554C40.4587 76.7645 40.5499 76.3455 40.737 76.0007C40.9217 75.651 41.1736 75.3852 41.495 75.2056C41.8141 75.0212 42.1787 74.9279 42.5889 74.9279C42.9847 74.9279 43.3422 75.0212 43.6636 75.2056C43.9899 75.3852 44.2441 75.651 44.4313 76.0007C44.616 76.3455 44.7095 76.7645 44.7095 77.2554ZM43.7404 77.2554C43.7404 76.7765 43.6348 76.4125 43.4237 76.1635C43.2126 75.9097 42.9344 75.7803 42.5889 75.7803C42.2363 75.7803 41.9556 75.9097 41.7445 76.1635C41.5334 76.4125 41.4279 76.7765 41.4279 77.2554C41.4279 77.7344 41.5334 78.1031 41.7445 78.357C41.9556 78.6132 42.2363 78.7401 42.5889 78.7401C42.9344 78.7401 43.2126 78.6132 43.4237 78.357C43.6348 78.1031 43.7404 77.7344 43.7404 77.2554Z" fill="white"/>
<path d="M46.8958 74.995H48.0856L49.333 78.041H49.3906L50.638 74.995H51.8182V79.5256H50.8875V76.5755H50.8491L49.6784 79.5065H49.0451L47.8649 76.5659H47.8265V79.5256H46.8958V74.995Z" fill="white"/>
<path d="M54.1433 74.995H55.3331L56.5806 78.041H56.6381L57.8855 74.995H59.0658V79.5256H58.135V76.5755H58.0966L56.926 79.5065H56.2927L55.1124 76.5659H55.0741V79.5256H54.1433V74.995Z" fill="white"/>
<path d="M61.3909 79.5256V74.995H64.4518V75.7804H62.3504V76.8628H64.2983V77.6483H62.3504V78.7306H64.4614V79.5256H61.3909Z" fill="white"/>
<path d="M66.6929 79.5256V74.995H68.4872C69.0054 74.995 69.4036 75.1291 69.6866 75.3973C69.9745 75.6655 70.1184 76.0247 70.1184 76.4701C70.1184 76.7838 70.0465 77.052 69.9073 77.2747C69.7658 77.4926 69.5667 77.6554 69.3124 77.7632L70.2816 79.5256H69.2165L68.3529 77.9165H67.6524V79.5256H66.6929ZM67.6524 77.1502H68.3049C68.8542 77.1502 69.1301 76.9251 69.1301 76.4701C69.1301 76.0055 68.8542 75.7709 68.3049 75.7709H67.6524V77.1502Z" fill="white"/>
<path d="M76.2786 76.5754H75.3094C75.2711 76.3263 75.1607 76.1324 74.9832 75.9911C74.8105 75.8522 74.5922 75.7803 74.3307 75.7803C73.9781 75.7803 73.6926 75.9097 73.4767 76.1635C73.2656 76.4197 73.1601 76.7837 73.1601 77.2554C73.1601 77.7416 73.2656 78.1127 73.4767 78.3666C73.6926 78.6156 73.9757 78.7401 74.3211 78.7401C74.5754 78.7401 74.7913 78.6731 74.964 78.539C75.1415 78.4049 75.2567 78.2181 75.3094 77.9738L76.2786 77.9834C76.245 78.2588 76.1466 78.5198 75.9811 78.7689C75.8132 79.0131 75.5901 79.2095 75.3094 79.3627C75.0264 79.5112 74.6905 79.583 74.3019 79.583C73.8989 79.583 73.5367 79.4944 73.2176 79.3148C72.8962 79.1304 72.6443 78.8646 72.4596 78.5198C72.2797 78.1702 72.1909 77.7487 72.1909 77.2554C72.1909 76.7645 72.2821 76.3455 72.4692 76.0007C72.6539 75.651 72.9058 75.3852 73.2272 75.2056C73.5463 75.0212 73.9037 74.9279 74.3019 74.9279C74.6521 74.9279 74.9688 74.9949 75.2519 75.129C75.5325 75.2583 75.7628 75.4451 75.9427 75.6941C76.1202 75.9384 76.233 76.2305 76.2786 76.5754Z" fill="white"/>
<path d="M78.4417 79.5256V74.995H81.5026V75.7804H79.4012V76.8628H81.3491V77.6483H79.4012V78.7306H81.5122V79.5256H78.4417Z" fill="white"/>
<path d="M0.148682 77.9166H23.1825" stroke="white" stroke-width="4.97827"/>
<path d="M86.3206 77.9166H109.357" stroke="white" stroke-width="4.97827"/>
</g>
<defs>
<clipPath id="clip0_7_283">
<rect width="111" height="80" fill="white"/>
</clipPath>
</defs>
</svg>
